<?xml version="1.0" standalone="no"?>
<!DOCTYPE svg PUBLIC "-//W3C//DTD SVG 20010904//EN"
 "http://www.w3.org/TR/2001/REC-SVG-20010904/DTD/svg10.dtd">
<svg version="1.0" xmlns="http://www.w3.org/2000/svg"
 width="134.000000pt" height="246.000000pt" viewBox="0 0 134.000000 246.000000"
 preserveAspectRatio="xMidYMid meet">

<g transform="translate(0.000000,246.000000) scale(0.100000,-0.100000)"
fill="#000000" stroke="none">
<path d="M540 2275 l0 -125 -125 0 -125 0 0 -105 0 -105 125 0 126 0 -3 -122
-3 -123 -242 -3 -243 -2 0 -110 0 -110 245 0 245 0 0 -345 c0 -231 -3 -345
-10 -345 -6 0 -33 11 -60 25 -27 13 -74 36 -104 49 l-56 25 0 -110 0 -110 115
-55 115 -56 0 -229 0 -229 120 0 120 0 0 170 c0 94 2 170 4 170 1 0 51 -22
109 -50 58 -27 109 -50 112 -50 3 0 5 50 5 111 l0 110 -115 54 -115 54 0 406
0 405 245 0 245 0 0 110 0 110 -242 2 -243 3 -3 123 -3 122 126 0 125 0 0 110
0 110 -125 0 -125 0 0 120 0 120 -120 0 -120 0 0 -125z"/>
</g>
</svg>
