<?xml version="1.0" encoding="UTF-8" standalone="no"?>
<!-- Created with Inkscape (http://www.inkscape.org/) -->

<svg
   xmlns:dc="http://purl.org/dc/elements/1.1/"
   xmlns:cc="http://creativecommons.org/ns#"
   xmlns:rdf="http://www.w3.org/1999/02/22-rdf-syntax-ns#"
   xmlns:svg="http://www.w3.org/2000/svg"
   xmlns="http://www.w3.org/2000/svg"
   xmlns:sodipodi="http://sodipodi.sourceforge.net/DTD/sodipodi-0.dtd"
   xmlns:inkscape="http://www.inkscape.org/namespaces/inkscape"
   version="1.1"
   id="svg2"
   width="2000"
   height="2000"
   viewBox="0 0 2000 2000"
   sodipodi:docname="Logotip-belkart3.svg"
   inkscape:version="0.92.3 (2405546, 2018-03-11)">
  <metadata
     id="metadata8">
    <rdf:RDF>
      <cc:Work
         rdf:about="">
        <dc:format>image/svg+xml</dc:format>
        <dc:type
           rdf:resource="http://purl.org/dc/dcmitype/StillImage" />
        <dc:title></dc:title>
      </cc:Work>
    </rdf:RDF>
  </metadata>
  <defs
     id="defs6" />
  <sodipodi:namedview
     pagecolor="#ffffff"
     bordercolor="#666666"
     borderopacity="1"
     objecttolerance="10"
     gridtolerance="10"
     guidetolerance="10"
     inkscape:pageopacity="0"
     inkscape:pageshadow="2"
     inkscape:window-width="1920"
     inkscape:window-height="1017"
     id="namedview4"
     showgrid="false"
     inkscape:zoom="0.3337544"
     inkscape:cx="1000"
     inkscape:cy="1000"
     inkscape:window-x="-8"
     inkscape:window-y="-8"
     inkscape:window-maximized="1"
     inkscape:current-layer="g817" />
  <g
     id="g817">
    <path
       style="fill:none;stroke:none"
       d="M 0,1000 V 0 H 1000 2000 V 1000 2000 H 1000 0 Z"
       id="path827"
       inkscape:connector-curvature="0" />
    <path
       style="fill:#6cc5ee"
       d="m 197.6838,1875.5764 c -5.09598,-1.8511 -7.30188,-4.0026 -9.17506,-8.9489 -1.39208,-3.6758 -1.53279,-17.4778 -1.28593,-126.1275 l 0.27719,-122 2.48925,-4.3481 c 1.53345,-2.6785 4.22126,-5.3663 7,-7 L 201.5,1604.5 l 82.72763,-0.2724 c 81.88267,-0.2696 82.74829,-0.2517 84.75,1.75 1.90933,1.9094 2.02237,3.2732 2.02237,24.4 0,19.592 -0.20577,22.5483 -1.65309,23.75 -1.34543,1.117 -12.83831,1.4655 -61.75,1.8724 L 247.5,1656.5 v 23 23 l 39.5,0.623 c 41.50789,0.6547 45.97003,1.0934 60.97144,5.9941 21.08882,6.8894 38.40005,21.907 46.58362,40.4115 5.38909,12.1857 6.86919,20.6511 6.90118,39.4714 0.0339,19.9438 -0.97352,25.1282 -7.48131,38.5 -8.5315,17.53 -20.9532,29.8178 -39.47493,39.0493 -20.40896,10.1721 -17.50618,9.8448 -90,10.149 -51.70067,0.2169 -63.68445,0.016 -66.8162,-1.1219 z m 118.88475,-53.6703 c 5.61662,-1.7348 7.76228,-3.0769 12.51145,-7.8261 4.74917,-4.7492 6.09131,-6.8948 7.82611,-12.5114 4.64158,-15.0277 1.95941,-28.8335 -7.42489,-38.2178 -4.25301,-4.253 -6.47716,-5.5951 -12.09621,-7.2989 -6.45037,-1.9559 -8.87356,-2.0707 -38.38501,-1.8198 l -31.5,0.2679 -0.26378,33.4929 c -0.14508,18.4211 -0.0467,34.0586 0.21861,34.75 0.37299,0.972 7.49682,1.2571 31.40845,1.2571 28.5632,0 31.444,-0.16 37.70527,-2.0939 z M 468,1875.4839 c -20.51947,-4.1927 -35.05124,-14.612 -42.98413,-30.8197 -8.72417,-17.8243 -9.27887,-24.9672 -8.73011,-112.4176 0.46191,-73.6108 0.45141,-73.4509 5.75332,-87.6215 2.88731,-7.717 10.99723,-19.6336 16.75832,-24.6243 2.58643,-2.2406 8.3026,-5.8529 12.7026,-8.0274 15.49042,-7.6553 12.20653,-7.3607 86.20365,-7.733 65.59281,-0.33 66.22253,-0.3142 68.25,1.7132 1.93778,1.9378 2.04635,3.2136 2.04635,24.0464 0,20.6667 -0.12121,22.1212 -2,24 -1.94854,1.9485 -3.33333,2 -53.81634,2 -32.99168,0 -53.97202,0.3948 -57.75,1.0866 -7.67383,1.4054 -11.96528,4.1117 -14.69014,9.2642 -1.97926,3.7426 -2.23078,5.9506 -2.5665,22.5299 -0.29636,14.636 -0.0977,18.5546 0.9754,19.2347 0.74117,0.4697 26.54758,0.8678 57.34758,0.8846 30.8,0.017 56.53435,0.3704 57.18744,0.7857 2.59473,1.6498 3.31256,6.9219 3.31256,24.3291 0,19.453 -0.7743,23.0562 -5.20995,24.2444 -1.25953,0.3374 -27.37755,0.6196 -58.04005,0.6271 L 477,1759 l 0.0239,23.75 c 0.0131,13.0625 0.43325,25.5152 0.93361,27.6726 1.28711,5.5496 3.89676,8.6986 9.5945,11.5774 l 4.94803,2.5 57.98729,0.3098 c 51.39703,0.2745 58.18762,0.491 59.75,1.9049 1.58343,1.433 1.76271,3.8679 1.76271,23.9403 0,21.0117 -0.11934,22.4643 -2,24.345 -1.96198,1.962 -3.2689,1.9982 -68.75,1.906 -51.2578,-0.072 -68.2586,-0.4022 -73.25,-1.4221 z m 153.40499,-0.5866 c -1.69618,-1.8722 -1.94158,-4.0861 -2.23885,-20.198 -0.3604,-19.5336 0.17058,-25.8932 2.34329,-28.0659 0.76476,-0.7647 3.99579,-1.716 7.18007,-2.1138 10.50841,-1.3129 16.51858,-6.0459 22.35208,-17.602 8.51757,-16.8732 11.80138,-42.7415 17.44427,-137.4176 1.37681,-23.1 2.78464,-43.8 3.12851,-46 1.53083,-9.7938 6.66467,-16.421 14.3171,-18.4815 2.68462,-0.7229 29.14673,-0.9777 82.26313,-0.7921 L 846.5,1604.5 l 4.51075,2.6519 c 2.77874,1.6337 5.46655,4.3215 7,7 l 2.48925,4.3481 0.27506,127.5 0.27506,127.5 -2.13584,1.75 c -1.91111,1.5659 -4.83989,1.75 -27.83393,1.75 -20.61453,0 -26.08208,-0.2808 -27.63922,-1.4193 -1.89541,-1.3858 -1.95291,-3.9707 -2.44113,-109.75 l -0.5,-108.3307 -36.68689,-0.2623 -36.68689,-0.2622 -0.52771,4.2622 c -0.29024,2.3443 -0.78995,9.4373 -1.11046,15.7623 -1.17332,23.1545 -5.58493,76.4952 -7.55045,91.2924 -4.99852,37.6308 -11.70672,59.1174 -24.42358,78.2297 -14.34141,21.5538 -31.74783,30.4779 -59.447,30.4779 -9.66152,0 -10.95105,-0.2141 -12.66203,-2.1027 z m 275.15171,-0.1198 c -1.38989,-1.9844 -1.55512,-16.2628 -1.54196,-133.25 0.0117,-103.6047 0.27935,-131.5507 1.27906,-133.5275 l 1.26431,-2.5 27.97095,-0.2668 c 25.40903,-0.2424 28.08543,-0.1104 29.22094,1.4411 0.96087,1.3129 1.25,13.3639 1.25,52.1 v 50.392 l 22.25,-0.3331 c 22.0723,-0.3305 22.2997,-0.3562 28.4724,-3.2074 7.6183,-3.5189 15.4155,-11.4275 18.7904,-19.0588 1.323,-2.9917 6.2738,-19.9806 11.0017,-37.7532 4.7279,-17.7726 9.2823,-34.4511 10.121,-37.0633 2.4906,-7.7574 2.464,-7.7505 30.0052,-7.7505 13.3077,0 24.92,0.2779 25.8053,0.6176 4.2184,1.6188 3.9919,3.1011 -6.976,45.6397 -7.005,27.1685 -11.7836,43.717 -14.0244,48.5668 -5.8285,12.6151 -12.2895,20.5607 -24.4086,30.0174 l -2.4631,1.9219 8.3964,4.2217 c 13.7659,6.9213 22.4599,17.2551 27.3554,32.5149 2.8909,9.0113 27.6743,102.458 27.6743,104.347 0,1.0137 -0.8229,2.5878 -1.8287,3.498 -1.603,1.4507 -5.0386,1.655 -27.8257,1.655 -25.6873,0 -26.0222,-0.027 -28.1164,-2.256 -1.5084,-1.6056 -5.7471,-15.0822 -14.704,-46.75 -6.9215,-24.4717 -13.9021,-47.194 -15.5124,-50.494 -4.2481,-8.7056 -8.2533,-13.0063 -15.2984,-16.4273 -8.4441,-4.1002 -15.79875,-5.0563 -38.9644,-5.0651 L 956,1756 v 58.2775 c 0,51.1272 -0.191,58.5502 -1.5567,60.5 -1.54422,2.2047 -1.77639,2.2225 -28.9433,2.2225 -27.16691,0 -27.39908,-0.018 -28.9433,-2.2225 z m 230.0147,0.6511 c -0.8643,-0.8643 -1.5714,-2.5147 -1.5714,-3.6676 0,-2.7001 81.5751,-248.9586 84.2259,-254.261 2.653,-5.3066 5.4335,-8.2423 10.2741,-10.8473 3.7835,-2.0362 5.3262,-2.1527 28.5,-2.1527 24.1294,0 24.5643,0.037 28.7523,2.4354 2.3387,1.3395 5.6005,4.4895 7.2483,7 3.4109,5.1967 85.9994,252.7243 85.9994,257.7505 0,1.6028 -0.54,3.4541 -1.2,4.1141 -0.8766,0.8766 -8.7976,1.2 -29.3892,1.2 -25.4482,0 -28.4012,-0.1716 -30.3689,-1.765 -1.6266,-1.3172 -4.1611,-8.3582 -9.9888,-27.75 l -7.8092,-25.985 -43.5812,-0.2605 c -40.7428,-0.2435 -43.641,-0.1458 -44.5002,1.5 -0.5055,0.9683 -3.9145,11.6605 -7.5757,23.7605 -7.9633,26.3183 -8.2868,27.1764 -10.9471,29.0398 -3.2161,2.2527 -55.8051,2.1519 -58.0683,-0.1112 z M 1276,1769.9607 c 0,-0.5716 -3.1505,-11.5177 -7.001,-24.3246 -3.8506,-12.807 -10.0743,-35.1768 -13.8305,-49.7108 -3.7561,-14.5339 -7.2392,-26.3418 -7.7402,-26.2398 -0.501,0.102 -4.3279,12.927 -8.5041,28.5 -4.1763,15.573 -10.3677,37.5507 -13.7587,48.8395 -3.391,11.2887 -6.1655,21.3012 -6.1655,22.25 0,1.593 2.1809,1.725 28.5,1.725 19.0511,0 28.5,-0.3446 28.5,-1.0393 z m 111.0726,104.4044 c -2.0716,-2.6335 -2.0726,-2.6966 -2.0726,-127.0571 0,-90.9929 0.3113,-125.6587 1.1587,-129.0238 1.5415,-6.1219 7.0036,-11.584 13.1255,-13.1255 3.2123,-0.8089 21.3201,-1.1587 59.9824,-1.1587 61.5792,0 66.7358,0.4 82.9095,6.431 12.813,4.7779 19.2472,8.9926 29.8709,19.5666 8.155,8.1168 10.2294,10.8876 14.2263,19.0024 7.7356,15.7053 10.8555,33.823 8.7903,51.0473 -5.0251,41.9111 -28.833,67.5506 -71.0922,76.5615 -5.7014,1.2157 -15.8221,1.7124 -42.7214,2.0965 l -35.25,0.5034 v 45.3305 c 0,44.6443 -0.3291,49.7781 -3.3126,51.6751 -0.6531,0.4153 -12.9672,0.762 -27.3648,0.7704 l -26.1774,0.015 -2.0726,-2.6349 z m 113.7633,-145.3387 c 19.9789,-2.2971 30.7117,-13.2275 31.9142,-32.5019 0.7159,-11.4757 -1.9653,-20.3231 -8.2913,-27.3592 -6.642,-7.3874 -12.9702,-10.1427 -25.6394,-11.1636 -11.3759,-0.9167 -48.2981,-1.191 -51.0694,-0.3794 -1.624,0.4756 -1.75,3.0577 -1.75,35.8618 0,27.3437 0.2831,35.4635 1.25,35.8536 2.2681,0.9152 45.0816,0.6665 53.5859,-0.3113 z m 175.8003,146.6968 c -0.9604,-0.7022 -2.1607,-3.0647 -2.6673,-5.25 -0.5297,-2.2848 -0.9313,-48.6979 -0.945,-109.2232 L 1673,1656 h -34.9442 -34.9443 l -2.8057,-2.4134 -2.8058,-2.4134 v -21.4816 c 0,-19.7212 0.1561,-21.6541 1.905,-23.5866 l 1.905,-2.105 h 103.7724 103.7724 l 2.0726,2.6349 c 1.9384,2.4643 2.0726,3.9177 2.0726,22.4529 0,21.086 -0.5102,23.9124 -4.6573,25.8019 -1.6394,0.747 -14.0333,1.1103 -37.8767,1.1103 h -35.4398 l -0.2631,109.0807 c -0.2573,106.6652 -0.3061,109.1122 -2.2042,110.5 -2.689,1.9661 -53.2527,2.0949 -55.9227,0.1425 z M 881.7486,1523.585 c -2.6006,-0.9361 -10.72983,-8.1112 -26.5,-23.3897 C 813.33218,1459.5855 669.25654,1314.538 667.61865,1311.2997 666.72839,1309.5395 666,1305.9151 666,1303.2454 c 0,-5.1223 2.26997,-9.4627 9.16567,-17.5256 3.13734,-3.6684 3.19781,-3.9117 2.04415,-8.2251 -2.36219,-8.832 -7.35486,-17.6761 -13.11075,-23.2247 -10.06036,-9.698 4.1762,-8.6929 -132.59907,-9.3617 -127.74875,-0.6248 -124.25268,-0.4836 -129.34501,-5.2249 -6.06993,-5.6516 -5.62916,5.8432 -5.92445,-154.5043 -0.18324,-99.49914 0.0652,-147.56356 0.7763,-150.20449 1.23047,-4.56962 5.07878,-9.4504 9.08455,-11.52187 1.56924,-0.81148 6.71186,-1.86654 11.42804,-2.34457 4.71619,-0.47803 8.69858,-1.03543 8.84976,-1.23866 3.96141,-5.3252 9.19379,-18.94937 10.03744,-26.13567 0.6763,-5.76076 -1.43148,-14.53471 -4.56762,-19.01345 -1.24026,-1.77121 -39.34205,-40.55161 -84.67064,-86.17865 C 301.83977,742.9147 263.63155,703.88926 262.26122,701.81855 259.17003,697.14744 258.83987,690.06276 261.47745,685 263.69631,680.74094 467.06338,476.98106 472,474.07081 c 3.83381,-2.26012 10.20631,-2.70327 14.6389,-1.018 1.52301,0.57905 5.0398,2.98026 7.8151,5.33603 9.79943,8.31811 9.18572,8.17178 18.48839,4.40825 4.48234,-1.8134 10.26649,-4.87849 12.85366,-6.81132 5.96485,-4.45622 12.96078,-14.92568 13.62926,-20.39627 0.27485,-2.24922 0.68306,-56.7673 0.90715,-121.15127 0.39852,-114.5032 0.45123,-117.16079 2.41143,-121.59215 1.1022,-2.4917 3.52322,-5.61391 5.38005,-6.93823 3.26059,-2.32549 4.21405,-2.43461 27.87606,-3.19036 13.475,-0.43039 80.75,-0.65539 149.5,-0.5 115.84575,0.26182 125.22929,0.40804 128.13088,1.99659 6.5748,3.59955 10.33852,10.59617 10.37455,19.28592 0.009,2.2 0.29972,5.71343 0.64577,7.80762 0.59687,3.61205 1.04847,4.00869 8.79237,7.72222 11.29281,5.4154 16.79415,6.55783 25.01732,5.19521 4.86784,-0.80663 7.68263,-1.94802 10.81032,-4.38356 2.32584,-1.81113 41.5249,-40.36462 87.10903,-85.67443 59.17536,-58.819244 84.05856,-82.916551 86.99996,-84.252301 5.0417,-2.289498 8.5402,-2.387883 13.4019,-0.37689 4.6391,1.918927 209.3555,206.043291 212.2862,211.672291 2.3682,4.54855 2.4842,10.81931 0.2791,15.0895 -0.909,1.76019 -4.059,6.03845 -7,9.50725 -2.9411,3.4688 -5.3474,6.94602 -5.3474,7.72717 0,2.54412 4.6539,13.85536 7.6122,18.50117 3.3001,5.18272 9.2787,10.82497 14.3878,13.57848 3.3603,1.811 8.3886,1.90622 126,2.38627 113.2365,0.46219 122.7368,0.62962 125.6309,2.21408 4.4055,2.41191 8.1558,7.19916 9.0602,11.56536 0.4239,2.04631 0.7793,69.42056 0.7898,149.72056 l 0.019,146 -2.2189,4.14923 c -3.3659,6.29408 -7.7409,8.47506 -19.1309,9.53713 -5.3076,0.49491 -10.1604,1.07124 -10.7839,1.28073 -1.5258,0.51261 -6.8604,10.49376 -8.9154,16.68065 -2.5314,7.62154 -2.1735,19.93963 0.7163,24.65 1.2493,2.03624 40.6829,42.31927 87.6303,89.51784 86.2763,86.73782 89.1586,89.86335 89.1586,96.68442 0,7.11741 -1.8925,9.13957 -107.2007,114.5481 -72.6497,72.7188 -104.3574,103.8128 -106.9733,104.9028 -7.6287,3.1786 -13.0393,1.6445 -22.2821,-6.3178 -3.3,-2.8428 -7.0819,-5.4519 -8.4043,-5.7981 -7.0251,-1.8387 -27.1683,9.3782 -32.5924,18.1494 l -3.0033,4.8565 -0.6249,122.1475 c -0.3436,67.1812 -0.9583,123.242 -1.366,124.5796 -1.1405,3.742 -5.2667,8.745 -8.8108,10.6831 -3.0048,1.6431 -12.217,1.7489 -152.2713,1.7489 h -149.073 l -4.0207,-2.6608 c -4.8652,-3.2196 -7.3335,-8.0719 -7.9646,-15.6574 -1.0672,-12.8266 -0.4424,-11.8699 -11.0268,-16.8837 -14.9269,-7.071 -25.3352,-7.641 -33.3682,-1.8276 -1.9105,1.3827 -27.5487,26.504 -56.9737,55.8252 -82.74564,82.4538 -113.23459,112.2715 -116.5,113.9351 -4.7033,2.3961 -8.68284,2.8187 -12.7514,1.3542 z m -10.7252,-360.2202 c 3.25584,-24.6756 7.04365,-52.7398 8.41734,-62.3648 l 2.49763,-17.5 12.28082,-11.8596 c 15.13337,-14.6144 23.76739,-21.6944 30.28081,-24.8309 2.75,-1.3242 8.31426,-4.4105 12.36503,-6.8586 13.08467,-7.9075 21.45413,-12.1132 30.13497,-15.143 7.13422,-2.49 10.02646,-2.9649 18,-2.9555 18.4451,0.022 26.0396,2.9556 53.4703,20.6555 4.9336,3.1834 14.8336,8.6241 22,12.0902 l 13.0297,6.3022 19,17.8842 c 10.45,9.8363 36.902,35.5692 58.7823,57.1842 21.8803,21.615 40.0031,39.0792 40.2731,38.8093 0.5309,-0.531 -1.7772,-3.5932 -35.6348,-47.278 -12.362,-15.95 -26.6977,-34.5255 -31.8572,-41.2789 l -9.3808,-12.2789 0.673,-25.4726 c 0.653,-24.7193 0.7746,-25.8644 4.112,-38.7211 7.1251,-27.44867 11.7639,-37.08988 23.4784,-48.79743 12.5757,-12.56822 25.5749,-18.94154 46.6448,-22.86932 13.7206,-2.55772 26.7943,-6.15142 37.1361,-10.20799 7.017,-2.75239 8.0337,-2.86398 35,-3.84128 15.2752,-0.5536 50.4981,-1.06563 78.2731,-1.13783 27.775,-0.0722 51.85,-0.44009 53.5,-0.81752 2.8892,-0.66091 2.8339,-0.71236 -1.5,-1.39357 -2.475,-0.38903 -16.875,-2.05854 -32,-3.71002 -40.6329,-4.43666 -79.2687,-8.98494 -81.1676,-9.55521 -2.5651,-0.77033 -38.7991,-39.7548 -43.4403,-46.73774 -11.3812,-17.12373 -18.7834,-31.16774 -21.681,-41.13467 -2.5968,-8.9325 -2.7178,-24.15737 -0.2666,-33.54592 2.1135,-8.09499 10.6002,-24.21691 20.0033,-38 3.9399,-5.775 9.6905,-15.675 12.7791,-22 5.4283,-11.11625 6.197,-12.11734 23.0336,-30 9.5799,-10.175 35.2653,-36.57646 57.0787,-58.66992 21.8134,-22.09345 39.6608,-40.43095 39.6608,-40.75 0,-1.18333 -1.1942,-0.33991 -15.1952,10.73219 -7.8677,6.22174 -28.6361,22.64674 -46.1521,36.5 L 1272.8055,669 l -7.1528,-0.0196 c -3.934,-0.0108 -18.7057,-0.45498 -32.826,-0.98711 -24.4803,-0.92256 -26.3328,-1.13345 -39.8692,-4.53874 -25.9602,-6.53073 -41.1654,-15.0811 -51.3793,-28.89233 -6.3204,-8.54649 -7.0381,-9.83695 -10.2425,-18.41695 -3.6237,-9.7026 -4.0112,-11.1003 -7.9294,-28.60301 -1.9648,-8.77676 -4.448,-18.22676 -5.5183,-21 -2.6334,-6.82343 -3.5772,-30.85927 -4.4975,-114.54226 -0.3962,-36.025 -1.0732,-64.15 -1.5045,-62.5 -0.4312,1.65 -3.0632,23.475 -5.8488,48.5 -2.7855,25.025 -5.6942,50.675 -6.4636,57 l -1.3989,11.5 -12.8373,12.37424 c -22.0458,21.25044 -31.2807,29.07233 -38.7741,32.84132 -3.8848,1.95395 -9.5383,5.14448 -12.5633,7.09006 -22.3344,14.36476 -41.77947,18.69683 -61.5,13.70129 -6.29462,-1.59453 -23.70074,-10.03153 -29.24461,-14.17529 -1.78454,-1.33385 -9.20954,-5.97734 -16.5,-10.31888 -7.29046,-4.34153 -15.32982,-9.51836 -17.86523,-11.50407 -5.2878,-4.14136 -44.4203,-41.7495 -90.92089,-87.37918 C 800.38617,431.8757 786,418.16999 786,418.67236 c 0,0.50236 7.07223,9.89409 15.71606,20.87051 8.64383,10.97642 25.51883,32.52874 37.5,47.89404 L 861,515.37382 l -0.0237,15.56309 c -0.0413,27.12957 -1.17949,36.40461 -6.94412,56.58661 -8.31312,29.10422 -11.84342,36.59867 -22.94355,48.70673 -10.90109,11.89095 -25.79389,18.74849 -52.85972,24.33978 -9.54659,1.97214 -18.8912,4.22656 -20.76579,5.00982 -4.11689,1.72014 -42.0893,3.37872 -77.96314,3.40531 -41.70291,0.0309 -98.2328,1.33989 -94.5,2.18818 1.925,0.43747 21.725,2.61683 44,4.84302 22.275,2.22619 46.35,4.72543 53.5,5.55387 l 13,1.50624 4.37103,4.21177 c 2.40407,2.31647 10.59092,10.91393 18.19299,19.10548 10.80947,11.64764 14.59721,16.48358 17.37897,22.18833 1.95636,4.01204 3.55701,7.53151 3.55701,7.82105 0,0.28955 2.61874,4.9298 5.81942,10.31167 14.67773,24.68026 17.01594,30.73794 17.86565,46.28523 0.4355,7.96821 0.17802,12.0673 -1.06784,17 -2.24198,8.87663 -10.05627,24.55825 -17.93913,36 -3.5998,5.225 -8.93751,13.926 -11.86159,19.33556 -7.68129,14.2104 -19.86551,27.49075 -91.01434,99.20232 C 624.41098,981.05872 611,994.92686 611,995.35598 c 0,1.18727 2.33094,-0.62256 47.98938,-37.26076 L 701.47876,924 l 11.51062,0.0364 c 22.55811,0.0712 43.08324,1.71073 49.51062,3.95475 3.3,1.15215 11.175,3.45932 17.5,5.12706 34.97017,9.2207 48.02843,18.08671 60.21264,40.88183 4.63537,8.6722 6.08506,13.42907 10.20938,33.49996 1.92131,9.35 5.08147,21.6835 7.02259,27.4078 l 3.52931,10.4077 1.00007,27.5923 c 0.55005,15.1757 1.01087,50.3172 1.02405,78.0922 0.0216,45.4313 0.41689,58.9184 1.68965,57.6456 0.2288,-0.2288 3.07987,-20.6051 6.33571,-45.2808 z"
       id="path825"
       inkscape:connector-curvature="0" />
    <path
       style="fill:#0164a0"
       d="m 202.00151,1874.9358 c -5.75262,-1.1718 -8.99497,-3.5681 -11.50151,-8.5003 -1.96703,-3.8706 -2,-5.914 -2,-123.9355 0,-96.2402 0.25877,-120.7301 1.30693,-123.6875 1.88316,-5.3134 4.95331,-8.7992 9.61447,-10.9162 3.86315,-1.7545 8.42499,-1.8535 86.35998,-1.8743 77.43471,-0.021 82.32372,0.081 83,1.728 0.39524,0.9625 0.71862,10.975 0.71862,22.25 0,11.275 -0.32338,21.2875 -0.71862,22.25 -0.67323,1.6395 -4.54266,1.75 -61.27475,1.75 H 246.9505 l -0.97525,2.5651 c -1.0255,2.6973 -1.35511,41.4181 -0.38339,45.038 0.55694,2.0747 1.05915,2.1112 37.23635,2.708 20.16948,0.3327 39.82179,1.0805 43.67179,1.6619 24.27467,3.6657 43.3895,12.9328 55.69782,27.003 19.5065,22.2989 24.20487,66.4894 10.04987,94.524 -9.51369,18.8423 -26.86721,34.1214 -47.1693,41.5307 -17.14246,6.2563 -17.1728,6.2587 -80.57839,6.5526 -32.41612,0.1503 -59.98429,-0.1353 -62.49849,-0.6475 z m 118.08709,-52.5577 c 8.34447,-3.954 13.33554,-8.945 17.28947,-17.2895 2.89276,-6.105 3.11885,-7.3594 3.07991,-17.0886 -0.0367,-9.1595 -0.37241,-11.2022 -2.62989,-16 -3.28218,-6.9756 -9.65567,-13.1178 -17.32809,-16.6993 l -6,-2.8007 -33.45987,-0.3232 c -31.0342,-0.2998 -33.55339,-0.1954 -34.75,1.4411 -1.68189,2.3001 -1.88204,67.4076 -0.21678,70.5191 1.04667,1.9558 1.89771,1.9976 34.25,1.6843 L 313.5,1825.5 Z m 156.77818,52.5465 c -29.30582,-3.1073 -48.82472,-18.4692 -55.36332,-43.5726 -3.31702,-12.7349 -3.61419,-21.4392 -3.27244,-95.852 0.33669,-73.3136 0.36077,-74.0729 2.59672,-81.859 3.373,-11.7456 8.31681,-20.6967 15.82958,-28.6606 5.37136,-5.6939 8.3867,-7.8934 15.74328,-11.4835 15.2743,-7.4542 15.77552,-7.4969 87.9348,-7.4969 52.62147,0 63.6142,0.2344 64.562,1.3764 0.79854,0.9622 1.06109,7.9501 0.87245,23.2212 l -0.26985,21.8448 -2.5,1.2641 c -1.92111,0.9713 -14.9115,1.2674 -56.10078,1.2788 -56.65604,0.015 -57.41397,0.072 -63.76806,4.7943 -6.09031,4.5258 -7.47022,9.4671 -7.9436,28.4449 -0.22945,9.1985 -0.13194,17.861 0.21668,19.25 L 476.0381,1710 h 56.98095 c 55.64762,0 57.02775,0.047 58.98095,2 1.86563,1.8656 2,3.3333 2,21.845 0,17.9555 -0.17412,20.0026 -1.82874,21.5 -1.65628,1.4989 -7.16161,1.655 -58.37756,1.655 -48.34604,0 -56.7245,0.2117 -57.75998,1.4594 -0.89839,1.0825 -1.1237,7.9983 -0.87245,26.7796 0.33266,24.8667 0.38448,25.4093 2.89262,30.2907 1.83734,3.5758 3.80133,5.6717 7,7.4703 l 4.44611,2.5 59.20088,0.5 c 46.66028,0.3941 59.47607,0.7749 60.5,1.7978 0.96183,0.9609 1.37858,6.7349 1.60516,22.2394 l 0.30604,20.9416 -2.51058,2.5106 -2.51059,2.5106 -60.79546,-0.133 c -33.4375,-0.073 -64.2304,-0.4972 -68.42867,-0.9424 z m 147.82643,0.4221 C 621.58161,1874.4594 621,1870.4575 621,1849.9349 c 0,-18.6016 0.13377,-20.0687 2,-21.9349 1.36236,-1.3624 3.35498,-2.007 6.25,-2.022 5.86822,-0.03 11.48836,-2.8466 16.43744,-8.2368 14.35158,-15.631 17.97024,-37.7682 24.82133,-151.8445 3.02314,-50.3377 3.80331,-53.865 12.81919,-57.9585 3.98093,-1.8075 7.76793,-1.8943 82.67204,-1.8943 74.05674,0 78.72641,0.104 82.5,1.8368 4.76084,2.1862 6.81168,4.3359 9.21186,9.6559 1.68168,3.7274 1.80458,11.353 2.06433,128.0794 0.18052,81.1208 -0.0707,125.0285 -0.72524,126.75 L 858.0495,1875 h -26.4023 c -23.33723,0 -26.56164,-0.1919 -27.77476,-1.6534 -1.13765,-1.3705 -1.45798,-20.1457 -1.87244,-109.75 L 801.5,1655.5 h -38 -38 l -0.7436,9 c -0.40898,4.95 -1.89959,25.2 -3.31245,45 -3.91614,54.8811 -6.71263,76.1933 -13.01518,99.1895 -5.74234,20.9521 -15.15794,38.367 -27.0546,50.0397 -10.92309,10.7174 -23.81056,15.5894 -43.87417,16.5862 -6.05,0.3006 -11.81305,0.3147 -12.80679,0.031 z m 273.87822,-0.9181 c -1.41282,-1.4128 -1.56988,-14.8624 -1.55612,-133.25 0.009,-81.123 0.3789,-132.2545 0.96233,-133.1786 0.79304,-1.2561 5.09515,-1.5484 26.4608,-1.798 16.8899,-0.1972 26.19483,0.066 27.52862,0.7804 1.97419,1.0565 2.02003,2.1109 2.27388,52.2979 L 954.5,1710.5 977,1710.467 c 21.09802,-0.031 22.8603,-0.1761 28.2823,-2.3339 12.3891,-4.9306 19.7289,-13.6085 24.6413,-29.1334 1.6533,-5.225 6.655,-23.2189 11.115,-39.9865 4.46,-16.7676 8.5809,-31.0551 9.1577,-31.75 0.7942,-0.957 7.1755,-1.2635 26.3037,-1.2635 21.4538,0 25.4463,0.2304 26.5254,1.5306 1.0504,1.2657 -0.4259,8.1479 -8.5268,39.75 -5.3884,21.0207 -11.036,41.6727 -12.5503,45.8935 -4.7049,13.1141 -15.0159,26.8717 -25.1821,33.5993 -3.8878,2.5728 -4.5198,4.8352 -1.7662,6.3223 0.825,0.4455 4.6202,2.2938 8.4337,4.1072 12.4398,5.9153 20.0907,15.4914 25.405,31.7971 3.4609,10.6193 27.1613,100.2005 27.1613,102.6627 0,4.078 -2.5912,4.4543 -28.4929,4.1368 -20.5155,-0.2514 -24.6891,-0.5495 -25.9949,-1.8569 -0.8555,-0.8565 -7.1327,-21.1065 -13.9492,-45 -6.8165,-23.8934 -13.3236,-45.8012 -14.4603,-48.684 -5.2224,-13.2446 -12.7913,-20.3392 -25.6027,-23.9982 -5.3936,-1.5404 -46.253,-3.0412 -50.9185,-1.8702 L 954,1755.0378 v 59.4458 c 0,57.7488 -0.0552,59.4753 -1.93426,60.4809 -1.18534,0.6344 -11.6117,1.0352 -26.92857,1.0352 -21.38877,0 -25.221,-0.2267 -26.56574,-1.5714 z m 230.17857,0.5251 c -0.9796,-0.5895 -1.746,-2.2418 -1.7409,-3.7534 0.015,-4.4789 82.4184,-250.7425 85.6346,-255.9207 5.0382,-8.1113 7.2933,-8.731 33.0534,-9.0824 13.7309,-0.1873 23.7256,0.1088 26.2045,0.7763 4.9923,1.3443 9.6293,5.169 12.0055,9.9023 3.6301,7.2309 85.2383,254.0908 84.6311,256.0039 -0.3324,1.0474 -1.602,2.1718 -2.8213,2.4987 -3.9871,1.0689 -50.2476,0.6812 -53.4875,-0.4483 -1.688,-0.5884 -3.373,-1.8259 -3.7445,-2.75 -0.3716,-0.924 -3.9687,-12.612 -7.9936,-25.9733 -4.025,-13.3613 -7.8622,-24.9488 -8.5272,-25.75 -1.0251,-1.2352 -7.8784,-1.4568 -45.0514,-1.4568 -40.8895,0 -43.906,0.119 -44.7879,1.7668 -0.52,0.9717 -4.3371,12.7479 -8.4824,26.1694 -4.8738,15.7802 -8.2714,25.1379 -9.6157,26.4833 -1.9835,1.9852 -3.2568,2.0921 -27.8027,2.3339 -16.6884,0.1644 -26.3387,-0.1165 -27.474,-0.7997 z m 148.2027,-102.9033 c 1.2205,-0.7721 0.2245,-5.0453 -6.2313,-26.7347 -4.2261,-14.1986 -10.7058,-37.4513 -14.3993,-51.6725 -6.3927,-24.6147 -7.917,-28.4483 -10.3453,-26.02 -0.4889,0.4889 -4.2619,13.4861 -8.3846,28.8828 -4.1226,15.3967 -10.4424,37.7779 -14.0439,49.7359 -6.4453,21.4001 -7.2046,24.7684 -5.8816,26.0914 1.0284,1.0284 57.6401,0.7583 59.286,-0.2829 z m 113.3272,102.9551 c -1.221,-0.5054 -2.472,-1.9509 -2.78,-3.2122 -0.3079,-1.2613 -0.4339,-58.9933 -0.2799,-128.2933 0.2755,-123.9713 0.3122,-126.0534 2.28,-129.3191 1.1,-1.8255 3.575,-4.3005 5.5,-5.5 3.48,-2.1685 3.8378,-2.1825 62.6944,-2.4612 56.7563,-0.2687 59.6177,-0.194 69.4752,1.8149 32.96,6.7168 55.656,27.4491 64.0032,58.4654 2.8226,10.4885 3.1079,34.3699 0.5343,44.7373 -8.4945,34.2195 -29.3668,54.5835 -64.513,62.9419 -7.705,1.8324 -12.676,2.1137 -43.6941,2.4733 -19.25,0.2231 -36.0125,0.6262 -37.25,0.8956 l -2.25,0.49 v 46.7898 c 0,38.809 -0.2419,47.1209 -1.418,48.731 -1.3286,1.8187 -2.9519,1.9545 -25.75,2.1533 -13.3826,0.1167 -25.331,-0.2013 -26.5521,-0.7067 z M 1508.764,1729.575 c 11.1101,-2.9576 19.49,-10.2924 23.2547,-20.3546 6.6242,-17.7046 1.0151,-38.2644 -12.8454,-47.0841 -8.9772,-5.7124 -12.6777,-6.1952 -45.2322,-5.9017 l -29.4411,0.2654 -0.2629,35.9952 c -0.1446,19.7974 -0.046,36.5599 0.2186,37.25 0.7297,1.9015 57.0865,1.7523 64.3083,-0.1702 z m 170.5514,145.4436 c -1.2016,-0.4982 -2.6641,-1.8016 -3.25,-2.8965 -0.7349,-1.3731 -1.0654,-35.3267 -1.0654,-109.4494 0,-97.0658 -0.153,-107.5174 -1.5818,-108.0657 -0.87,-0.3339 -17.2695,-0.607 -36.4433,-0.607 h -34.8615 l -1.5567,-2.2225 c -1.282,-1.8303 -1.5567,-5.7245 -1.5567,-22.0657 0,-11.7661 0.4214,-20.6306 1.0352,-21.7775 1.0132,-1.8933 3.2342,-1.9343 104.8,-1.9343 79.3726,0 104.0469,0.2821 104.9648,1.2 0.8577,0.8577 1.2,7.2322 1.2,22.345 0,19.215 -0.1669,21.2961 -1.8287,22.8 -1.6304,1.4754 -5.7317,1.655 -37.8,1.655 -26.6444,0 -36.2824,0.3111 -37.1713,1.2 -0.9185,0.9185 -1.2,26.5728 -1.2,109.3776 0,99.3459 -0.1348,108.2896 -1.6514,109.55 -1.2823,1.0656 -7.0386,1.4198 -25.75,1.5846 -13.2542,0.1167 -25.0817,-0.1954 -26.2832,-0.6936 z M 880.43281,1521.1088 c -2.9377,-1.3343 -27.29933,-25.3864 -87.72424,-86.6095 -46.01138,-46.6193 -86.46174,-88.153 -89.8897,-92.2972 l -6.23265,-7.5349 3.45689,0.6947 c 1.90129,0.3821 7.95689,1.1815 13.45689,1.7766 5.5,0.5951 10.8045,1.5073 11.78777,2.0271 0.98328,0.5199 2.64865,0.672 3.70084,0.338 1.05218,-0.3339 3.84768,-0.054 6.21222,0.6213 2.36455,0.6756 4.65391,1.1432 5.08748,1.039 0.43358,-0.1042 6.05858,0.7558 12.5,1.9111 6.44143,1.1553 15.31169,2.5295 19.71169,3.0538 4.4,0.5242 12.275,1.6145 17.5,2.4229 5.225,0.8084 14.37575,2.1446 20.33499,2.9694 5.95925,0.8247 11.64983,1.9356 12.64573,2.4686 0.99591,0.533 8.27016,1.6922 16.16501,2.5759 14.11151,1.5797 28.93054,3.8482 58.06827,8.8889 8.09271,1.4 16.41771,2.5528 18.5,2.5617 2.0823,0.01 8.511,0.9163 14.286,2.0164 5.775,1.1001 12.075,2.1616 14,2.3588 9.46371,0.9696 15.7341,1.9695 18,2.8704 1.375,0.5467 3.85,1.1309 5.5,1.2983 24.85425,2.5214 26.94048,2.8001 44,5.8781 4.95,0.8931 10.5108,1.9527 12.3573,2.3546 l 3.3572,0.7308 -15.4552,16.4882 c -8.5003,9.0685 -37.9111,39.1718 -65.35724,66.8963 -49.17576,49.6744 -54.023,54.048 -59.90206,54.048 -1.1,0 -3.83023,-0.8313 -6.06719,-1.8473 z M 1233.735,1386.9774 c -38.3707,-0.3707 -70.0629,-0.972 -70.4271,-1.3361 -0.9002,-0.9002 4.5418,-6.4599 7.1182,-7.2721 1.1406,-0.3595 4.0419,-2.3828 6.4472,-4.4961 2.4053,-2.1133 6.6803,-5.4407 9.5,-7.3943 2.8197,-1.9535 8.026,-5.5618 11.5695,-8.0183 3.5436,-2.4565 6.6936,-4.8323 7,-5.2795 0.3065,-0.4471 2.7271,-2.3583 5.3791,-4.247 2.652,-1.8887 7.377,-5.3406 10.5,-7.6709 3.123,-2.3303 7.1602,-4.932 8.9716,-5.7816 1.8114,-0.8496 3.5557,-2.228 3.8762,-3.0631 0.523,-1.3629 3.4531,-3.5733 14.1776,-10.6955 1.841,-1.2226 4.991,-3.6137 7,-5.3136 2.009,-1.6999 7.0277,-5.423 11.1527,-8.2734 4.125,-2.8505 9.377,-6.6347 11.6712,-8.4093 8.2821,-6.4066 17.6984,-13.2644 20.7323,-15.0994 1.7031,-1.03 4.9989,-3.6175 7.3242,-5.75 2.3252,-2.1324 4.6726,-3.8772 5.2166,-3.8772 0.5439,0 3.269,-2.025 6.0557,-4.5 2.7867,-2.475 5.5321,-4.5 6.1008,-4.5 0.5688,0 3.4443,-1.9125 6.3901,-4.25 2.9459,-2.3375 7.8655,-6.0162 10.9326,-8.1749 3.0671,-2.1586 5.5765,-4.287 5.5765,-4.7296 0,-0.4427 1.9125,-1.7724 4.25,-2.9549 2.3375,-1.1825 6.1524,-3.8917 8.4777,-6.0203 2.3252,-2.1287 4.6582,-3.8703 5.1844,-3.8703 0.5263,0 4.3545,-2.7 8.5072,-6 4.1527,-3.3 8.0067,-6 8.5644,-6 0.5577,0 2.8487,-1.7805 5.0912,-3.9567 2.2424,-2.1762 5.0522,-4.2663 6.244,-4.6445 1.9526,-0.6197 4.0431,-2.2494 9.8115,-7.6488 1.0283,-0.9625 2.294,-1.75 2.8127,-1.75 0.5187,0 3.7833,-2.4095 7.2547,-5.3546 3.4714,-2.945 8.2049,-6.3203 10.5188,-7.5008 2.3139,-1.1805 5.0582,-3.0599 6.0986,-4.1766 1.8699,-2.0071 1.8989,-1.9418 2.5457,5.7509 0.3599,4.2796 0.9174,46.9311 1.2389,94.7811 0.5673,84.4373 0.5281,87.1031 -1.3316,90.5 -1.1609,2.1205 -3.6457,4.3868 -6.3041,5.75 l -4.3879,2.25 -58.5381,-0.1743 c -32.196,-0.096 -89.9323,-0.4776 -128.3031,-0.8483 z m -119.0683,-16.6441 c -0.3667,-0.3666 -0.6763,-6.5541 -0.6881,-13.75 -0.024,-14.8107 -1.5062,-40.2231 -2.4948,-42.7786 -0.3607,-0.9325 -1.8191,-2.0831 -3.2408,-2.557 -2.4933,-0.8311 -1.9133,-1.5367 16.336,-19.871 40.4249,-40.6135 75.4219,-74.7092 76.0447,-74.0864 0.6837,0.6838 -1.291,4.3643 -33.1093,61.7097 -10.8335,19.525 -26.723,48.2125 -35.31,63.75 -8.5869,15.5375 -15.8958,28.25 -16.2419,28.25 -0.346,0 -0.9292,-0.3 -1.2958,-0.6667 z M 674,1292.0434 c 0,-0.6544 6.48461,-8.094 14.41025,-16.5325 7.92564,-8.4384 16.28213,-17.7108 18.56999,-20.6051 3.95442,-5.0027 4.21552,-6.0524 2.52622,-10.1558 -0.68189,-1.6564 2.8475,-1.75 65.96988,-1.75 49.1991,0 66.59136,0.2969 66.313,1.132 -0.20752,0.6226 -4.63252,2.3768 -9.83333,3.8982 -26.83832,7.8514 -153.76846,44.3087 -155.70601,44.7225 -1.3418,0.2865 -2.25,2e-4 -2.25,-0.7093 z m -268.81803,-52.0028 c -2.01851,-1.2739 -4.12723,-3.9233 -5.38414,-6.7647 -2.05802,-4.6525 -2.06362,-5.0688 -1.42785,-106.2234 0.35104,-55.8539 0.92087,-116.5603 1.26628,-134.90319 l 0.62803,-33.3507 2.35082,2.8507 c 1.29295,1.56788 3.77009,5.32569 5.50476,8.35069 1.73467,3.025 4.23864,6.85 5.56437,8.5 2.41644,3.00749 10.19729,14.51476 15.81576,23.3903 1.65,2.6065 4.44901,6.5577 6.22002,8.7804 1.77102,2.2228 3.69565,5.1187 4.27697,6.4354 0.58132,1.3166 3.7648,6.2189 7.0744,10.8939 3.30959,4.675 7.76455,11.2 9.89989,14.5 2.13535,3.3 4.96163,7.35 6.28063,9 1.31899,1.65 3.84186,5.5559 5.60638,8.6798 1.76451,3.1239 4.54324,7.109 6.17496,8.8558 1.63171,1.7467 2.96675,3.7607 2.96675,4.4755 0,1.0973 2.22564,4.2041 8.06751,11.2614 0.57933,0.6998 1.71458,2.7248 2.52279,4.5 0.80822,1.7751 3.28965,5.7025 5.51431,8.7275 2.22466,3.025 5.24871,7.3 6.72011,9.5 1.4714,2.2 4.13778,5.947 5.92528,8.3266 1.7875,2.3796 3.25,4.7835 3.25,5.3418 0,0.9987 1.95038,3.7723 7.11508,10.1184 1.43829,1.7672 2.93496,4.2378 3.32593,5.4901 0.39096,1.2523 2.47668,4.3172 4.63492,6.8108 2.15824,2.4937 3.92407,4.9765 3.92407,5.5174 0,0.5409 2.1375,3.8458 4.75,7.3443 2.6125,3.4984 5.53306,7.641 6.49014,9.2057 0.95707,1.5647 3.73191,5.7699 6.16631,9.3449 2.43439,3.575 6.82633,10.0323 9.75986,14.3496 2.93353,4.3173 7.35869,10.7321 9.83369,14.2551 5.13382,7.3077 13.50379,19.9275 16.58409,25.0045 1.14625,1.8893 3.28375,4.6872 4.75,6.2176 3.48467,3.6372 3.36269,4.8064 -0.58409,5.5984 -1.7875,0.3587 -42.625,0.8901 -90.75,1.1807 l -87.5,0.5286 z M 1466.5,1096.8818 c -21.6256,-20.446 -26.6725,-24.3951 -29.347,-22.9637 -1.0883,0.5824 -2.1731,1.6266 -2.4106,2.3204 -0.2376,0.6938 -0.7672,-3.8387 -1.1769,-10.0723 -0.9833,-14.9605 0.4483,-123.55245 1.6134,-122.38728 0.9164,0.91641 48.7682,161.55598 49.5889,166.47108 0.2526,1.5125 0.071,2.7397 -0.4043,2.7272 -0.4749,-0.013 -8.5135,-7.2555 -17.8635,-16.0954 z m 61.8045,-10.3922 c 0.3462,-1.6443 1.1248,-7.2646 1.7303,-12.4896 0.6054,-5.225 1.7667,-13.55 2.5805,-18.5 0.8137,-4.95 2.1447,-13.275 2.9576,-18.5 0.813,-5.225 2.3666,-14.1353 3.4526,-19.8008 1.086,-5.6654 1.9745,-12.725 1.9745,-15.6879 0,-2.96296 0.6492,-8.22762 1.4427,-11.69925 0.7934,-3.47163 1.951,-11.01491 2.5722,-16.76285 0.6213,-5.74795 1.5835,-11.29885 2.1382,-12.33535 0.5548,-1.0365 1.1793,-3.53364 1.3879,-5.5492 0.2087,-2.01556 0.8467,-6.58965 1.4179,-10.16465 0.5712,-3.575 1.4511,-9.875 1.9552,-14 1.1578,-9.47236 3.4094,-23.82429 7.1382,-45.5 1.6085,-9.35 3.1343,-20.18184 3.3908,-24.07075 0.2564,-3.88891 0.9736,-9.06391 1.5938,-11.5 0.6201,-2.43609 1.7124,-8.47925 2.4274,-13.42925 0.7149,-4.95 2.2135,-14.4 3.3303,-21 1.8163,-10.73517 2.6317,-16.64255 3.7059,-26.85101 0.2872,-2.72845 1.9258,-12.68591 4.0606,-24.67468 l 0.6278,-3.52568 3.5891,3.02568 c 15.7185,13.25077 128.9422,125.05696 131.2769,129.63328 2.7381,5.36713 2.4659,9.69824 -0.9395,14.94663 -1.5865,2.44518 -16.324,17.72224 -32.75,33.94903 -122.077,120.59655 -135.6422,133.85905 -145.2778,142.03495 -6.3143,5.3578 -6.4027,5.3953 -5.7831,2.4514 z M 500.5,972.46788 C 464.75,952.97389 430.8875,934.51983 425.25,931.45885 419.6125,928.39787 415,925.4878 415,924.99203 c 0,-1.42988 5.02268,-1.85541 28.5,-2.41457 27.43357,-0.65339 29.33292,-0.95048 30.9701,-4.84417 l 1.24839,-2.96905 5.39075,4.95824 C 489.90756,927.81487 568,1006.5139 568,1007.2882 c 0,0.3915 -0.5625,0.6919 -1.25,0.6675 -0.6875,-0.024 -30.5,-15.99384 -66.25,-35.48782 z M 382.86522,818.75 c -7.88116,-7.2875 -38.27544,-37.1 -67.54285,-66.25 -49.64277,-49.44362 -53.25466,-53.27386 -53.82732,-57.08131 -1.31542,-8.74593 -3.29138,-6.56746 85.39237,-94.14416 C 392.32434,556.40481 433.55,516.14212 438.5,511.80189 l 9,-7.89133 0.31502,3.06698 c 0.17326,1.68683 -0.88768,10.36946 -2.35764,19.29472 -1.46996,8.92525 -2.79552,17.35274 -2.94567,18.72774 -0.15016,1.375 -0.52589,3.175 -0.83494,4 -0.30906,0.825 -1.27738,7.125 -2.15181,14 -2.31958,18.23696 -4.40138,32.16621 -6.50129,43.5 -1.01904,5.5 -2.36548,13.6 -2.9921,18 -1.24857,8.7673 -3.79812,26.97147 -4.55171,32.5 -0.2624,1.925 -1.15302,7.325 -1.97915,12 -3.68245,20.83851 -4.80487,28.28939 -6.02575,40 -0.71674,6.875 -1.78116,14.6532 -2.36538,17.28489 -0.58421,2.63169 -1.52075,8.03169 -2.08119,12 -0.56044,3.96831 -1.90483,11.94011 -2.98754,17.71511 -1.08271,5.775 -1.98483,12.06472 -2.00471,13.97715 -0.0199,1.91244 -0.69161,6.86244 -1.49273,11 -0.80113,4.13757 -1.974,11.57285 -2.60637,16.52285 -0.63238,4.95 -1.51911,10.35 -1.97052,12 -0.45141,1.65 -1.04444,5.025 -1.31785,7.5 -1.17406,10.62828 -1.9552,15 -2.6802,15 -0.42564,0 -7.2221,-5.9625 -15.10325,-13.25 z M 1464.6372,643 c -36.9708,-36.60968 -57.2646,-57.70598 -56.3706,-58.59993 0.4679,-0.46794 25.5748,13.03013 134.5554,72.34035 10.6271,5.78356 18.9521,10.85607 18.5,11.27225 -0.4521,0.41617 -13.197,1.22314 -28.322,1.79325 -15.125,0.57011 -28.703,1.49776 -30.1734,2.06144 -1.6207,0.62131 -2.8064,1.93209 -3.0112,3.32876 -0.2853,1.94609 -5.7484,-3.05389 -35.1782,-32.19612 z M 529.53965,612.25 c -5.9412,-20.2125 -17.04311,-57.82555 -24.67092,-83.58455 -7.6278,-25.759 -13.86873,-47.2465 -13.86873,-47.75 0,-1.78447 2.685,-0.87901 5.07569,1.71167 4.47764,4.85223 30.81534,29.24024 36.02534,33.3585 4.8057,3.7987 5.30779,3.97653 7.38484,2.61559 2.22815,-1.45993 2.22869,-1.45866 2.86536,6.71929 0.83695,10.7507 0.83321,95.93529 -0.005,111.5225 -0.35952,6.68635 -0.95761,12.157 -1.32908,12.157 -0.37148,0 -5.53639,-16.5375 -11.47759,-36.75 z M 1574.7269,621 c -1.3116,-2.6269 -4.0339,-6.4389 -11.7269,-16.42109 -4.125,-5.35247 -8.4,-11.05333 -9.5,-12.66858 -1.1,-1.61525 -4.7,-6.47964 -8,-10.80975 -3.3,-4.33012 -8.7816,-11.86166 -12.1813,-16.73676 -3.3997,-4.8751 -7.1058,-9.85071 -8.2359,-11.0569 -1.1301,-1.2062 -3.3245,-4.19543 -4.8765,-6.64275 -1.5521,-2.44731 -4.0513,-5.96043 -5.5538,-7.80692 -4.4128,-5.42295 -11.8827,-15.38904 -15.6525,-20.88305 -1.925,-2.80542 -5.4034,-7.61428 -7.7299,-10.68634 -2.3264,-3.07205 -4.4942,-6.41858 -4.8173,-7.43671 C 1486.1296,498.83302 1485.44,498 1484.9202,498 c -0.5198,0 -2.4605,-2.3625 -4.3128,-5.25 -1.8523,-2.8875 -4.3589,-6.14086 -5.5702,-7.2297 -1.2112,-1.08883 -2.8132,-3.44181 -3.5599,-5.22883 -0.7467,-1.78703 -3.3194,-5.39616 -5.7173,-8.02031 -2.3978,-2.62414 -5.1935,-6.12116 -6.2127,-7.77116 -1.0192,-1.65 -3.1619,-4.575 -4.7615,-6.5 -1.5995,-1.925 -7.9432,-10.37911 -14.097,-18.78692 -6.1539,-8.40781 -12.5388,-17.11021 -14.1888,-19.33868 -3.8202,-5.15955 -15.037,-20.77631 -16.7196,-23.27824 -0.7042,-1.04712 -3.4179,-4.51491 -6.0304,-7.7062 -2.6125,-3.19129 -4.75,-6.23538 -4.75,-6.76465 0,-0.52926 -1.6483,-2.7984 -3.6629,-5.04253 -3.809,-4.243 -4.6024,-5.32064 -10.2366,-13.9039 -1.8697,-2.84839 -3.7706,-5.17888 -4.2243,-5.17888 -0.4537,0 -1.4971,-1.30009 -2.3188,-2.8891 l -1.4941,-2.88909 23.2184,-0.65073 c 12.7701,-0.3579 55.6183,-0.7453 95.2183,-0.8609 67.6535,-0.19749 72.1989,-0.10161 75.2942,1.58837 1.8118,0.9892 4.2081,3.2392 5.3249,5 2.0213,3.18658 2.0281,3.78679 1.4532,129.20145 -0.5419,118.22601 -0.9658,138.26428 -2.8454,134.5 z M 544.63905,398.25 c -0.34912,-3.7125 -0.91451,-46.35 -1.25641,-94.75 l -0.62165,-88 2.36951,-3.40805 c 1.30322,-1.87443 3.57012,-4.29726 5.03754,-5.38406 2.61607,-1.93752 4.52482,-1.97371 98,-1.85814 105.35577,0.13026 168.0467,0.99377 167.23721,2.30356 -0.46665,0.75506 -8.5102,6.59269 -14.94543,10.84669 -1.24802,0.825 -3.54953,2.5415 -5.11447,3.81445 C 785.92143,229.48002 779.70591,234 778.58876,234 c -0.70333,0 -2.13603,0.95368 -3.18377,2.11928 -1.04775,1.1656 -4.82999,4.05885 -8.40499,6.42945 -3.575,2.37059 -8.26924,5.91691 -10.43165,7.88072 -2.16241,1.9638 -4.2824,3.57055 -4.71109,3.57055 -0.42869,0 -3.19672,1.96891 -6.15119,4.37536 -2.95447,2.40644 -6.34748,4.89754 -7.54003,5.53578 -2.21724,1.18663 -17.4737,12.39617 -24.66604,18.12314 -2.2,1.75177 -7.825,5.87668 -12.5,9.16646 -4.675,3.28978 -10.3,7.4231 -12.5,9.18515 -2.2,1.76205 -6.5875,4.89512 -9.75,6.96238 -3.1625,2.06725 -5.75,4.08756 -5.75,4.48958 0,0.40201 -1.4625,1.57077 -3.25,2.59724 -1.7875,1.02647 -5.12573,3.3735 -7.4183,5.21561 -2.29256,1.84212 -4.51794,3.3493 -4.94528,3.3493 -0.42734,0 -1.92661,1.09006 -3.3317,2.42236 -3.26398,3.09487 -11.53603,8.99918 -16.05472,11.4593 -1.925,1.04804 -4.4,2.91177 -5.5,4.14164 -1.1,1.22986 -3.79724,3.37767 -5.99386,4.7729 -2.19663,1.39522 -6.60749,4.71186 -9.80192,7.37029 -3.19443,2.65843 -6.17733,4.83351 -6.62868,4.83351 -0.45134,0 -3.63533,2.25 -7.07554,5 -3.44021,2.75 -6.65762,5 -7.1498,5 -0.49219,0 -2.79733,1.73434 -5.12254,3.85409 -2.32521,2.11975 -5.41147,4.48225 -6.85835,5.25 -2.6171,1.3887 -19.00769,13.50645 -21.86931,16.16822 -0.825,0.76739 -4.04567,3.06104 -7.15705,5.09701 -3.11138,2.03597 -6.20398,4.36077 -6.87245,5.16622 -2.11195,2.54475 -2.67981,1.64379 -3.33145,-5.28554 z M 772,380.07998 c 0,-0.56838 6.45386,-12.6314 14.34192,-26.8067 7.88805,-14.1753 27.52509,-49.62328 43.63786,-78.77328 16.11278,-29.15 29.48338,-53.21197 29.71246,-53.47104 1.37287,-1.55262 2.28091,3.94747 2.30657,13.97104 0.0353,13.78187 1.71382,44.08755 2.5647,46.3049 0.33308,0.86799 1.58004,1.71697 2.77104,1.88663 1.74878,0.24911 -6.85278,9.44613 -44.70207,47.79664 -25.77714,26.11849 -47.71464,48.0815 -48.75,48.8067 C 772.77083,380.5735 772,380.69025 772,380.07998 Z m 363.1432,-30.97029 c -0.7462,-0.47283 -0.9712,-1.08595 -0.5,-1.36248 0.4713,-0.27653 9.8568,-3.0617 20.8568,-6.18925 27.5279,-7.82681 144.7104,-41.52918 146.25,-42.06232 3.7094,-1.28453 -0.1293,3.96461 -11.6728,15.96192 -19.0553,19.80436 -26.3049,28.57122 -25.8019,31.20219 0.3014,1.57683 -0.167,2.34424 -1.6786,2.75005 -3.4367,0.92262 -125.9791,0.63407 -127.4535,-0.30011 z M 1271,256 c -1.375,-0.44035 -4.3719,-0.8455 -6.6597,-0.90032 -2.2879,-0.0548 -17.3629,-2.32844 -33.5,-5.05249 -16.1372,-2.72404 -32.4903,-5.21478 -36.3403,-5.53498 -3.85,-0.32019 -9.25,-0.99645 -12,-1.50278 -21.5092,-3.96032 -32.5488,-5.67132 -57.5,-8.91178 -7.975,-1.03573 -19.675,-2.84589 -26,-4.02259 -22.4843,-4.18297 -27.5664,-5.04247 -33,-5.58106 -3.025,-0.29985 -8.425,-0.98441 -12,-1.52124 -3.575,-0.53684 -11.1907,-1.67211 -16.9238,-2.52282 -5.7331,-0.85072 -10.8362,-1.80164 -11.3403,-2.11316 -0.5041,-0.31153 -2.7883,-0.70573 -5.0762,-0.87601 -2.2878,-0.17029 -8.4347,-1.03746 -13.6597,-1.92707 -5.225,-0.8896 -11.3,-1.77378 -13.5,-1.96483 -9.31788,-0.8092 -41.2032,-5.93873 -42.02526,-6.76079 -1.11505,-1.11506 20.60738,-23.92252 72.99876,-76.64497 31.3459,-31.544006 58.2153,-57.985074 59.7099,-58.757925 3.4989,-1.809353 9.1809,-1.795831 12.6163,0.03002 4.2337,2.250225 160.4898,159.716225 177.2643,178.636995 l 6.142,6.9278 -3.353,-0.0997 c -1.8442,-0.0548 -4.478,-0.45995 -5.853,-0.9003 z"
       id="path819"
       inkscape:connector-curvature="0" />
  </g>
</svg>
